<!-- Generated by IcoMoon.io -->
<svg version="1.1" xmlns="http://www.w3.org/2000/svg" width="1024" height="1024" viewBox="0 0 1024 1024">
<title></title>
<g id="icomoon-ignore">
</g>
<path fill="#000" d="M256.219 320h543.562c53.467 0 96.219 42.963 96.219 95.961v224.078c0 53.009-43.079 95.961-96.219 95.961h-543.562c-53.467 0-96.219-42.963-96.219-95.961v-224.078c0-53.009 43.079-95.961 96.219-95.961zM384 544v96h32v-160c0-35.346-28.605-64-64.156-64h-31.688c-35.432 0-64.156 28.407-64.156 64v160h32v-96h96zM319.967 448c-17.655 0-31.967 14.204-31.967 32v32h96v-32c0-17.673-14.165-32-31.967-32h-32.067zM448 480v160h32v-96h63.844c35.432 0 64.156-28.407 64.156-64 0-35.346-28.605-64-64.156-64h-95.844v64zM480 448v64h64.033c17.655 0 31.967-14.204 31.967-32 0-17.673-14.165-32-31.967-32h-64.033zM640 480v160h32v-96h63.844c35.432 0 64.156-28.407 64.156-64 0-35.346-28.605-64-64.156-64h-95.844v64zM672 448v64h64.033c17.655 0 31.967-14.204 31.967-32 0-17.673-14.165-32-31.967-32h-64.033z"></path>
</svg>
